<?xml version="1.0" encoding="UTF-8" standalone="no"?>
<!-- Created with Inkscape (http://www.inkscape.org/) -->

<svg
   xmlns:dc="http://purl.org/dc/elements/1.1/"
   xmlns:cc="http://creativecommons.org/ns#"
   xmlns:rdf="http://www.w3.org/1999/02/22-rdf-syntax-ns#"
   xmlns:svg="http://www.w3.org/2000/svg"
   xmlns="http://www.w3.org/2000/svg"
   xmlns:sodipodi="http://sodipodi.sourceforge.net/DTD/sodipodi-0.dtd"
   xmlns:inkscape="http://www.inkscape.org/namespaces/inkscape"
   width="128"
   height="128"
   viewBox="0 0 128 128"
   version="1.1"
   id="svg8"
   inkscape:version="0.92.2 (5c3e80d, 2017-08-06)"
   sodipodi:docname="Logo3.svg">
  <defs
     id="defs2">
    <inkscape:perspective
       sodipodi:type="inkscape:persp3d"
       inkscape:vp_x="0 : 64 : 1"
       inkscape:vp_y="0 : 3779.5274 : 0"
       inkscape:vp_z="128 : 64 : 1"
       inkscape:persp3d-origin="64 : 42.666665 : 1"
       id="perspective4504" />
  </defs>
  <sodipodi:namedview
     id="base"
     pagecolor="#ff0000"
     bordercolor="#666666"
     borderopacity="1.0"
     inkscape:pageopacity="0"
     inkscape:pageshadow="2"
     inkscape:zoom="9.4765625"
     inkscape:cx="51.612867"
     inkscape:cy="53.476262"
     inkscape:document-units="px"
     inkscape:current-layer="layer1"
     showgrid="false"
     units="px"
     inkscape:window-width="3123"
     inkscape:window-height="1771"
     inkscape:window-x="2391"
     inkscape:window-y="-9"
     inkscape:window-maximized="1" />
  <metadata
     id="metadata5">
    <rdf:RDF>
      <cc:Work
         rdf:about="">
        <dc:format>image/svg+xml</dc:format>
        <dc:type
           rdf:resource="http://purl.org/dc/dcmitype/StillImage" />
        <dc:title></dc:title>
      </cc:Work>
    </rdf:RDF>
  </metadata>
  <g
     inkscape:label="Ebene 1"
     inkscape:groupmode="layer"
     id="layer1"
     transform="translate(0,-263.13332)">
    <path
       id="roof"
       style="fill:#ffffff;fill-opacity:1;stroke:none;stroke-width:4;stroke-miterlimit:4;stroke-dasharray:none"
       d="M 119.18389,311.09479 47.060114,284.74225 0.11523438,309.32938 0.14082108,303.42661 55.301476,274.22521 127.7919,307.45435 Z M 48.960938,289.67238 v 2.86133 84.65234 c 5.33274,-0.7092 10.665344,-1.41941 15.998046,-2.1289 l 0.248047,-64.90039 18.882813,4.70703 0.125,57.63281 c 9.820305,-1.30669 19.640526,-2.61402 29.460936,-3.91992 V 313.35207 C 92.104192,305.45878 70.533165,297.56393 48.960938,289.67238 Z m -3.453126,-0.48242 c -0.981769,0.52735 -1.963541,1.05469 -2.945312,1.58203 -14.149313,7.59334 -28.296821,15.19004 -42.44726562,22.78125 v 54.91797 c 15.13057162,2.9546 30.26169962,5.90636 45.39257762,8.85938 z m -4,6.68555 v 76.59961 C 29.04362,370.04283 16.579427,367.61054 4.1152344,365.17824 V 315.94582 C 16.579427,309.25572 29.04362,302.56561 41.507812,295.87551 Z" />
  </g>
</svg>
