<?xml version="1.0" encoding="UTF-8" standalone="no"?>

<svg xmlns="http://www.w3.org/2000/svg" version="1.1" width="128" height="128" viewBox="64 64 128 128">
  <path d="M 183.45638,112.66628 111.3326,86.313739 64.387724,110.90087 64.413314,104.9981 119.57396,75.796699 192.06439,109.02584 Z M 113.23342,91.24387 v 2.86133 84.65234 c 5.33274,-0.7092 10.66535,-1.41941 15.99805,-2.1289 l 0.24805,-64.90039 18.88281,4.70703 0.125,57.63281 c 9.8203,-1.30669 19.64053,-2.61402 29.46094,-3.91992 V 114.92356 C 156.37668,107.03027 134.80565,99.13542 113.23342,91.24387 Z m -3.45312,-0.48242 c -0.98177,0.52735 -1.96354,1.05469 -2.94531,1.58203 -14.149314,7.59334 -28.296822,15.19004 -42.447266,22.78125 v 54.91797 c 15.130571,2.9546 30.261699,5.90636 45.392576,8.85938 z m -4,6.68555 v 76.59961 C 93.316109,171.61432 80.851916,169.18203 68.387724,166.74973 V 117.51731 C 80.851916,110.82721 93.316109,104.1371 105.7803,97.447 Z"/>
</svg>
