<?xml version="1.0" encoding="UTF-8" standalone="no"?>
<!-- Created with Inkscape (http://www.inkscape.org/) -->

<svg
   xmlns:svg="http://www.w3.org/2000/svg"
   xmlns="http://www.w3.org/2000/svg"
   version="1.1"
   width="696.86627"
   height="696.86627"
   id="svg2990">
  <defs
     id="defs3">
    <clipPath
       id="clipPath40">
      <path
         d="m 181.546,391.2 -84.286,0 0,-84.285 84.286,0"
         id="path42" />
    </clipPath>
    <clipPath
       id="clipPath48">
      <path
         d="m 103.19,385.8 72.25,0 0,-73.43 -72.25,0 0,73.43 z m 72.25,0 z"
         id="path50" />
    </clipPath>
    <clipPath
       id="clipPath56">
      <path
         d="m -1,843 597,0 0,-844 -597,0 0,844 z m 597,0 z"
         id="path58" />
    </clipPath>
    <clipPath
       id="clipPath64">
      <path
         d="m 0.1,842.1 595,0 0,-842 -595,0 0,842 z"
         id="path66" />
    </clipPath>
    <clipPath
       id="clipPath4078">
      <path
         d="m 540.24,756.961 -58.351,0 0,-58.352 58.351,0 0,58.352 z"
         id="path4080" />
    </clipPath>
    <clipPath
       id="clipPath4086">
      <path
         d="m 481.889,756.961 56.693,0 0,-56.693 -56.693,0 0,56.693 z"
         id="path4088" />
    </clipPath>
    <clipPath
       id="clipPath4094">
      <path
         d="M 0,842 594,842 594,1 0,1 0,842 z"
         id="path4096" />
    </clipPath>
    <clipPath
       id="clipPath4102">
      <path
         d="m 0.03,841.98 595.02,0 0,-841.98 -595.02,0 0,841.98 z"
         id="path4104" />
    </clipPath>
    <clipPath
       id="clipPath4435">
      <path
         d="m 540.24,756.961 -58.351,0 0,-58.352 58.351,0 0,58.352 z"
         id="path4437" />
    </clipPath>
    <clipPath
       id="clipPath4443">
      <path
         d="m 481.889,756.961 56.693,0 0,-56.693 -56.693,0 0,56.693 z"
         id="path4445" />
    </clipPath>
    <clipPath
       id="clipPath4451">
      <path
         d="M 0,842 594,842 594,1 0,1 0,842 z"
         id="path4453" />
    </clipPath>
    <clipPath
       id="clipPath4459">
      <path
         d="m 0.03,841.98 595.02,0 0,-841.98 -595.02,0 0,841.98 z"
         id="path4461" />
    </clipPath>
    <clipPath
       id="clipPath4335">
      <path
         d="M 0,842 594,842 594,1 0,1 0,842 z"
         id="path4337" />
    </clipPath>
    <clipPath
       id="clipPath4343">
      <path
         d="m 0.03,841.98 595.02,0 0,-841.98 -595.02,0 0,841.98 z"
         id="path4345" />
    </clipPath>
  </defs>
  <g
     transform="translate(323.43281,190.07209)"
     id="layer1">
    <g
       transform="matrix(1.25,0,0,-1.25,-299.79438,1382.1303)"
       id="g4074">
      <g
         transform="matrix(9.8335427,0,0,9.8335427,-4757.5868,-6185.8464)"
         clip-path="url(#clipPath4078)"
         id="g4076">
        <g
           id="g4082">
          <g
             clip-path="url(#clipPath4086)"
             id="g4084">
            <g
               id="g4090">
              <g
                 clip-path="url(#clipPath4094)"
                 id="g4092">
                <g
                   id="g4098">
                  <g
                     clip-path="url(#clipPath4102)"
                     id="g4100">
                    <path
                       d="m 482.496,700.26 56.094,0 0,56.094 -56.094,0 0,-56.094 z"
                       id="path4106"
                       style="fill:#293681;fill-opacity:1;fill-rule:nonzero;stroke:none" />
                    <path
                       d="m 539.633,699.216 -57.137,0 0,57.138 57.137,0 0,-57.138 z"
                       id="path4108"
                       style="fill:none;stroke:#293681;stroke-width:1.21399999;stroke-linecap:butt;stroke-linejoin:miter;stroke-miterlimit:4;stroke-opacity:1;stroke-dasharray:none" />
                    <g
                       transform="translate(530.553,737.384)"
                       id="g4110">
                      <path
                         d="m 0,0 c -0.031,-0.02 -3.185,-2.062 -8.857,-2.577 -0.718,-0.065 -1.429,-0.142 -2.126,-0.227 0.092,0.381 0.17,0.766 0.232,1.156 0.989,6.268 -2.448,11.696 -7.299,12.461 -4.849,0.767 -9.306,-3.414 -10.298,-9.682 -0.209,-1.321 -0.23,-2.631 -0.085,-3.909 -0.644,0.075 -1.299,0.143 -1.96,0.202 -5.802,0.515 -9.028,2.56 -9.06,2.581 l -1.249,0.806 0.005,-1.486 0.107,-25.063 0.056,-0.141 c 0.452,-1.14 4.459,-3.133 9.469,-3.539 4.81,-0.388 10.269,-1.473 11.314,-1.686 0.078,-0.016 0.317,-0.065 0.317,-0.065 l 0.169,0.066 c 1.027,0.214 6.394,1.3 11.07,1.685 4.914,0.406 8.844,2.403 9.287,3.544 L 1.146,-25.735 1.257,0.829 0,0"
                         id="path4112"
                         style="fill:#ffffff;fill-opacity:1;fill-rule:nonzero;stroke:#293681;stroke-width:1.60000002" />
                    </g>
                    <g
                       transform="translate(508.256,736.596)"
                       id="g4114">
                      <path
                         d="m 0,0 c 0,0 0.991,-1.097 2.354,-1.296 1.45,-0.21 2.74,0.146 2.74,0.146 C 4.78,-1.6 3.811,-2.449 2.473,-2.355 0.912,-2.245 0,0 0,0"
                         id="path4116"
                         style="fill:#293681;fill-opacity:1;fill-rule:nonzero;stroke:none" />
                    </g>
                    <g
                       transform="translate(508.811,739.441)"
                       id="g4118">
                      <path
                         d="m 0,0 c -0.116,-0.739 -0.581,-1.279 -1.037,-1.207 -0.454,0.072 -0.729,0.729 -0.612,1.466 0.116,0.738 0.58,1.277 1.035,1.205 C -0.158,1.393 0.116,0.737 0,0"
                         id="path4120"
                         style="fill:#293681;fill-opacity:1;fill-rule:nonzero;stroke:none" />
                    </g>
                    <g
                       transform="translate(515.061,738.586)"
                       id="g4122">
                      <path
                         d="m 0,0 c -0.117,-0.738 -0.581,-1.279 -1.036,-1.206 -0.454,0.072 -0.73,0.728 -0.613,1.466 0.116,0.738 0.58,1.277 1.035,1.205 C -0.159,1.394 0.116,0.737 0,0"
                         id="path4124"
                         style="fill:#293681;fill-opacity:1;fill-rule:nonzero;stroke:none" />
                    </g>
                    <g
                       transform="translate(520.589,729.929)"
                       id="g4126">
                      <path
                         d="m 0,0 c -3.456,-0.327 -6.642,-1.18 -6.777,-1.216 l 0.042,-1.78 c 0.032,0.009 3.571,1.078 6.887,1.392 3.508,0.332 5.915,1.315 6.017,1.356 L 6.225,1.56 C 6.203,1.55 3.254,0.308 0,0"
                         id="path4128"
                         style="fill:#293681;fill-opacity:1;fill-rule:nonzero;stroke:none" />
                    </g>
                    <g
                       transform="translate(520.589,726.664)"
                       id="g4130">
                      <path
                         d="m 0,0 c -3.456,-0.328 -6.642,-1.181 -6.777,-1.216 l 0.042,-1.78 c 0.032,0.008 3.571,1.077 6.887,1.391 3.508,0.333 5.915,1.315 6.017,1.357 L 6.225,1.559 C 6.203,1.55 3.254,0.308 0,0"
                         id="path4132"
                         style="fill:#293681;fill-opacity:1;fill-rule:nonzero;stroke:none" />
                    </g>
                    <g
                       transform="translate(520.589,723.399)"
                       id="g4134">
                      <path
                         d="m 0,0 c -3.456,-0.328 -6.642,-1.181 -6.777,-1.217 l 0.042,-1.779 c 0.032,0.008 3.571,1.077 6.887,1.391 3.508,0.333 5.915,1.315 6.017,1.356 L 6.225,1.558 C 6.203,1.549 3.254,0.308 0,0"
                         id="path4136"
                         style="fill:#293681;fill-opacity:1;fill-rule:nonzero;stroke:none" />
                    </g>
                    <g
                       transform="translate(520.589,716.868)"
                       id="g4138">
                      <path
                         d="m 0,0 c -3.456,-0.328 -6.642,-1.181 -6.777,-1.217 l 0.042,-1.779 c 0.032,0.009 3.571,1.077 6.887,1.391 3.508,0.333 5.915,1.315 6.017,1.357 L 6.225,1.559 C 6.203,1.55 3.254,0.308 0,0"
                         id="path4140"
                         style="fill:#293681;fill-opacity:1;fill-rule:nonzero;stroke:none" />
                    </g>
                    <g
                       transform="translate(520.589,713.603)"
                       id="g4142">
                      <path
                         d="m 0,0 c -3.456,-0.328 -6.642,-1.181 -6.777,-1.217 l 0.042,-1.779 c 0.032,0.008 3.571,1.077 6.887,1.391 3.508,0.333 5.915,1.315 6.017,1.357 L 6.225,1.558 C 6.203,1.549 3.254,0.308 0,0"
                         id="path4144"
                         style="fill:#293681;fill-opacity:1;fill-rule:nonzero;stroke:none" />
                    </g>
                    <g
                       transform="translate(530.095,712.094)"
                       id="g4146">
                      <path
                         d="M 0,2.0886176e-8 C -0.581,-0.53599998 -3.446,-2.162 -7.863,-2.527 c -4.088,-0.338 -8.656,-1.191 -10.538,-1.566 l 0,23.603 c 1.436,0.313 5.704,1.191 10.152,1.594 4.044,0.366 6.849,1.441 8.346,2.159 C 0.088,20.873 0.003,0.54200002 0,2.0886176e-8 z M -38.517,0.00500002 c -0.002,0.552 -0.09,20.89899998 -0.1,23.26999998 1.518,-0.717 4.39,-1.803 8.545,-2.172 4.245,-0.376 8.334,-1.168 10.051,-1.526 l 0,-23.609 c -2.072,0.399 -6.462,1.183 -10.45,1.505 -4.518,0.366 -7.448,1.99400002 -8.046,2.53200002 z M -26.284,26.163 c 0.852,5.386 4.478,8.962 8.445,8.336 3.969,-0.627 6.801,-5.224 5.951,-10.61 -0.088,-0.558 -0.219,-1.106 -0.374,-1.64 -3.355,-0.482 -6.074,-1.073 -6.787,-1.233 -0.744,0.164 -3.679,0.79 -7.261,1.28 -0.184,1.256 -0.182,2.553 0.026,3.867 z M 0.464,25.285 c -0.031,-0.02 -3.185,-2.062 -8.858,-2.577 -0.717,-0.065 -1.428,-0.143 -2.125,-0.227 0.091,0.381 0.169,0.766 0.231,1.155 0.99,6.269 -2.447,11.697 -7.298,12.462 -4.85,0.767 -9.307,-3.414 -10.298,-9.682 -0.209,-1.322 -0.231,-2.632 -0.085,-3.91 -0.644,0.075 -1.3,0.144 -1.961,0.203 -5.801,0.514 -9.028,2.56 -9.059,2.58 l -1.25,0.807 0.005,-1.486 0.108,-25.06299998 0.056,-0.141 C -39.619,-1.734 -35.611,-3.728 -30.601,-4.133 c 4.809,-0.388 10.268,-1.473 11.314,-1.686 0.078,-0.016 0.317,-0.066 0.317,-0.066 l 0.168,0.067 c 1.028,0.214 6.394,1.3 11.071,1.685 4.913,0.406 8.844,2.402 9.287,3.54400002 l 0.054,0.139 L 1.721,26.114 0.464,25.285"
                         id="path4148"
                         style="fill:#293681;fill-opacity:1;fill-rule:nonzero;stroke:#293681;stroke-width:0.32031497;stroke-miterlimit:4;stroke-dasharray:none" />
                    </g>
                    <g
                       transform="translate(530.095,712.094)"
                       id="g4150" />
                    <g
                       transform="translate(506.477,717.474)"
                       id="g4154">
                      <path
                         d="M 0,0 C -0.275,-0.103 -0.938,-0.268 -1.834,0.076 L -2.309,0.25 c -1.716,0.619 -2.628,1.059 -2.719,1.31 0.078,0.837 0.591,0.976 1.103,1.032 0.548,0.062 1.841,-0.543 2.459,-1.006 l 0.367,0.49 C -1.282,2.213 -3.025,3.308 -3.993,3.202 -5.014,3.088 -5.563,2.555 -5.642,1.595 -5.646,1.545 -5.632,1.498 -5.623,1.45 -5.971,1.292 -6.783,0.826 -6.737,-0.125 c 0.002,-0.037 0.013,-0.076 0.024,-0.115 -0.321,-0.27 -0.788,-0.792 -0.631,-1.493 0.021,-0.094 0.081,-0.191 0.161,-0.288 -0.313,-0.278 -0.584,-0.706 -0.451,-1.264 0.067,-0.283 0.546,-0.636 1.151,-0.983 -0.433,0.023 -0.83,0.074 -1.029,0.166 -1.582,0.731 -2.864,2.869 -2.878,2.891 l -0.085,0.145 -2.414,0.063 c 0,0 -0.195,-0.007 -0.342,-0.013 -0.12,0.536 -0.311,1.564 -0.311,2.426 0,0.084 0.002,0.167 0.006,0.246 0.058,1.167 0.358,2.115 0.496,2.5 0.379,-0.015 2.957,-0.112 2.957,-0.112 l 0.096,0.104 c 0.021,0.024 2.19,2.395 2.945,3.056 l 1.083,0.848 c 0.456,0.284 0.751,0.563 0.861,0.737 0.3,0.474 0.598,1.518 0.665,3.335 0.5,-0.185 1.772,-1.155 1.772,-2.583 0,-2.072 -1.749,-4.023 -2.099,-4.393 L -4.566,4.633 C -4.558,4.632 -3.758,4.552 -2.845,4.134 -0.011,2.839 0.728,1.942 0.849,1.417 0.869,1.329 0.879,1.245 0.879,1.165 0.879,0.53 0.307,0.157 0,0 z M 0.13,-1.186 C 0.044,-1.485 -0.431,-1.697 -0.732,-1.796 -1.12,-1.871 -1.972,-2 -2.547,-1.813 c -2.121,0.693 -3.509,1.435 -3.579,1.724 -0.034,0.705 0.812,1.009 0.857,1.024 0.473,-0.385 1.392,-0.77 2.752,-1.26 l 0.464,-0.17 c 0.895,-0.344 1.618,-0.263 2.052,-0.145 l 0.013,-0.027 c 0.017,0.005 0.039,0.02 0.056,0.027 0,0 0.099,0.035 0.153,0.055 0.004,-0.018 0.007,-0.016 0.007,-0.059 0,-0.096 -0.019,-0.263 -0.098,-0.542 z m -2.046,-2.262 -0.002,0.006 c -0.007,-10e-4 -0.678,-0.161 -1.541,0.133 -1.337,0.456 -3.172,1.368 -3.289,1.711 -0.081,0.365 0.186,0.68 0.396,0.864 0.706,-0.615 2.26,-1.218 3.615,-1.661 0.616,-0.201 1.421,-0.12 1.915,-0.039 -0.015,-0.084 -0.068,-0.264 -0.281,-0.624 -0.133,-0.224 -0.482,-0.336 -0.813,-0.39 z m -0.712,-1.124 c -0.261,-0.31 -1.268,-0.29 -2.123,0.105 l 0.004,0.009 c -0.081,0.037 -0.163,0.076 -0.246,0.115 -0.016,0.01 -0.035,0.017 -0.052,0.027 l -0.079,0.048 -0.025,-0.002 c -0.895,0.432 -1.788,0.946 -1.897,1.148 -0.074,0.317 0.137,0.551 0.322,0.691 1.047,-0.745 3.041,-1.448 3.068,-1.457 0.407,-0.139 0.776,-0.192 1.08,-0.206 l -10e-4,-0.009 c 0.073,-0.009 0.157,-0.047 0.171,-0.069 0,-0.001 0.019,-0.113 -0.222,-0.4 z m 4.12,5.733 c 0,0.125 -0.015,0.256 -0.047,0.394 -0.223,0.971 -1.544,1.997 -4.036,3.136 -0.529,0.242 -1.011,0.378 -1.364,0.455 0.706,0.83 1.906,2.498 1.906,4.395 0,1.867 -1.789,3.221 -2.515,3.269 -0.287,0.019 -0.441,-0.157 -0.466,-0.341 0,0 -0.007,-0.155 -0.007,-0.155 C -5.113,9.879 -5.504,9.293 -5.615,9.117 -5.671,9.044 -6.034,8.727 -6.283,8.571 L -7.446,7.666 c -0.703,-0.617 -2.486,-2.551 -2.897,-2.999 -0.258,0.01 -3.105,0.116 -3.105,0.116 l -0.083,-0.194 c -0.021,-0.051 -0.535,-1.277 -0.617,-2.902 -0.065,-1.307 0.369,-3.059 0.374,-3.076 0.073,-0.284 0.332,-0.268 0.89,-0.227 0.021,0 1.777,-0.046 2.058,-0.053 0.33,-0.518 1.534,-2.284 3.057,-2.989 0.628,-0.29 2.133,-0.245 2.493,-0.229 0.092,-0.044 0.185,-0.088 0.276,-0.129 l 0.003,0.007 c 1.014,-0.47 2.324,-0.566 2.837,0.044 0.244,0.289 0.367,0.552 0.367,0.787 0,0.046 -0.016,0.088 -0.026,0.132 0.026,0.004 0.041,0.008 0.047,0.009 0.443,0.078 0.947,0.247 1.197,0.667 0.251,0.425 0.374,0.748 0.374,0.997 0,0.046 -0.029,0.077 -0.038,0.119 0.377,0.162 0.824,0.434 0.957,0.899 0.061,0.213 0.122,0.47 0.122,0.707 0,0.155 -0.043,0.292 -0.113,0.412 0.403,0.32 0.765,0.776 0.765,1.397"
                         id="path4156"
                         style="fill:#293681;fill-opacity:1;fill-rule:nonzero;stroke:none" />
                    </g>
                  </g>
                </g>
              </g>
            </g>
          </g>
        </g>
      </g>
    </g>
  </g>
</svg>
